<svg width="320" height="320" viewBox="0 0 320 320" fill="none" xmlns="http://www.w3.org/2000/svg">
<rect width="320" height="320" rx="160" fill="#76EFF7"/>
<path fill-rule="evenodd" clip-rule="evenodd" d="M222.307 66.1194C204.475 70.4486 189.094 82.0319 179.622 98.2637C178.77 99.7243 178.505 98.9158 178.482 94.7978C178.465 91.8445 178.341 84.3025 178.204 78.039L177.956 66.6499H171.844C168.091 66.6499 165.734 67.1277 165.734 67.8886C165.734 71.063 154.212 92.5023 148.766 99.4627C131.983 120.912 102.336 132.206 62.8103 132.206H44.6222V138.872V145.539H57.9555H71.2889V193.317V241.095H51.2889H31.2889V248.317V255.539H125.178H219.067V248.317V241.095H199.009L178.952 241.094L179.336 185.816C179.767 123.889 179.705 124.419 188.68 105.696C202.079 77.7439 238.036 65.9572 266.289 80.2555C271.003 82.6406 280.065 89.98 276.289 88.3537C245.417 75.0595 219.688 84.7569 214.734 111.555C208.013 147.913 258.071 166.679 286.348 138.402C321.136 103.614 276.301 53.0093 222.307 66.1194Z" fill="black"/>
</svg>
